<svg width="200" height="200" viewBox="0 0 200 200" fill="none" xmlns="http://www.w3.org/2000/svg">
<path d="M27.001 63.6641V40.969C27.001 31.598 34.599 24 43.972 24H137.243C146.616 24 154.212 31.598 154.212 40.969C154.212 40.969 154.212 112.035 154.212 115.459C154.212 118.883 152.44 121.955 150.402 124.15C148.365 126.348 129.61 145.025 128.491 146.214C127 147.8 124.866 149.041 122.27 149.041C119.676 149.041 43.971 149.041 43.971 149.041C34.598 149.041 27 141.443 27 132.072L27.001 63.6641Z" fill="#00E6E5"/>
<path d="M27.001 131.499C47.122 127.465 72.68 125.055 100.499 125.055C117.084 125.055 132.864 125.91 147.169 127.459C141.19 133.494 129.372 145.28 128.491 146.214C127 147.8 124.866 149.041 122.27 149.041H43.971C34.598 149.041 27 141.443 27 132.072L27.001 131.499Z" fill="#00B3B2"/>
<path d="M46.7841 60.752V67.1799V73.262V147.557C46.7841 156.928 54.3801 164.524 63.7511 164.524H142.053H157.026C166.4 164.524 173.996 156.928 173.996 147.557V135.245V129.161V60.7529C173.996 51.3809 166.4 43.7839 157.026 43.7839L78.727 43.7859L63.7511 43.7839C54.3801 43.7829 46.7841 51.38 46.7841 60.752Z" fill="url(#paint0_linear_2864_251)"/>
<path d="M46.7841 128.289V147.557C46.7841 156.928 54.3801 164.524 63.7511 164.524H101.561L110.39 176.389L118.283 164.524H142.054H157.027C166.401 164.524 173.997 156.928 173.997 147.557V135.245V131.499C153.877 127.465 128.319 125.055 100.499 125.055C81.1391 125.055 62.8801 126.221 46.7841 128.289Z" fill="url(#paint1_linear_2864_251)"/>
<path d="M88.745 86.885C88.745 85.555 90.186 84.4771 91.966 84.4771H157.669C159.448 84.4771 160.89 85.555 160.89 86.885V99.6431C160.89 100.971 159.449 102.049 157.669 102.049H91.966C90.187 102.049 88.745 100.971 88.745 99.6431V86.885Z" fill="#83E4ED"/>
<path d="M64.175 82.8799C64.175 78.6699 67.589 75.2571 71.796 75.2571C76.006 75.2571 79.418 78.6689 79.418 82.8799C79.418 84.8239 78.69 86.5959 77.493 87.9409C81.192 89.9609 83.7 93.886 83.7 98.397V102.049H59.8979V98.397C59.8979 93.887 62.4049 89.9631 66.0989 87.9431C64.9029 86.5961 64.175 84.8219 64.175 82.8799Z" fill="#83E4ED"/>
<path d="M132.036 121.005C132.036 119.675 130.594 118.597 128.817 118.597H63.114C61.334 118.597 59.894 119.675 59.894 121.005V133.761C59.894 135.091 61.333 136.169 63.114 136.169H128.817C130.593 136.169 132.036 135.091 132.036 133.761V121.005Z" fill="#83E4ED"/>
<path d="M156.606 117C156.606 112.791 153.194 109.379 148.985 109.379C144.776 109.379 141.363 112.791 141.363 117C141.363 118.943 142.092 120.714 143.288 122.063C139.589 124.083 137.08 128.008 137.08 132.518V136.17H160.883V132.518C160.883 128.008 158.378 124.083 154.682 122.063C155.88 120.717 156.606 118.943 156.606 117Z" fill="#83E4ED"/>
<path d="M160.112 71.053C159.911 71.141 159.684 71.1941 159.448 71.1941H88.3359C87.4229 71.1941 86.637 70.4091 86.637 69.4971V57.696C86.637 56.783 87.4229 55.999 88.3359 55.999H159.448C160.36 55.999 161.145 56.784 161.145 57.696V69.4971C161.145 70.1671 160.72 70.785 160.112 71.053Z" fill="#1934BF"/>
<defs>
<linearGradient id="paint0_linear_2864_251" x1="44.8495" y1="121.87" x2="175.936" y2="86.4403" gradientUnits="userSpaceOnUse">
<stop stop-color="#00DBDB"/>
<stop offset="0.7216" stop-color="#3647D3"/>
<stop offset="1" stop-color="#3647D3"/>
</linearGradient>
<linearGradient id="paint1_linear_2864_251" x1="45.2163" y1="146.111" x2="174.512" y2="154.86" gradientUnits="userSpaceOnUse">
<stop stop-color="#1B2BBB"/>
<stop offset="1" stop-color="#078DDD"/>
</linearGradient>
</defs>
</svg>
